# xmcd
#
# Track frame offsets: 
#        150
#        22209
#        46187
#        80382
#        105917
#        125291
#        143427
#        175637
#        195724
#
# Disc length: 2969 seconds
#
# Revision: 0
# Processed by: cddbd v1.5.2PL0 Copyright (c) Steve Scherf et al.
# Submitted via: ExactAudioCopy v0.99pb4
#
DISCID=660b9709
DTITLE=Wolf Mail - Live Blues In Red Square
DYEAR=2009
DGENRE=Blues
TTITLE0=Old time used to be
TTITLE1=Honey hush
TTITLE2=Coming to you
TTITLE3=Nov 27 - Sky is crying
TTITLE4=Love Breaking shuffle
TTITLE5=Blue rose
TTITLE6=Hello
TTITLE7=So fine
TTITLE8=We the people
EXTD=
EXTT0=
EXTT1=
EXTT2=
EXTT3=
EXTT4=
EXTT5=
EXTT6=
EXTT7=
EXTT8=
PLAYORDER=
